<svg xmlns="http://www.w3.org/2000/svg" viewBox="0 0 30 30"><defs><style>.cls-1{fill:#00ad74;}</style></defs><title>bitbucket</title><g id="Calque_2" data-name="Calque 2"><g id="Calque_1-2" data-name="Calque 1"><path class="cls-1" d="M30,5.63V24.37a5.36,5.36,0,0,1-1.65,3.95,5.51,5.51,0,0,1-4,1.68H5.64a5.36,5.36,0,0,1-4-1.68A5.44,5.44,0,0,1,0,24.37V5.63A5.36,5.36,0,0,1,1.65,1.68,5.51,5.51,0,0,1,5.64,0H24.36a5.36,5.36,0,0,1,4,1.68A5.44,5.44,0,0,1,30,5.63Zm-5.15,2a1.86,1.86,0,0,0-.17-1.47,5.73,5.73,0,0,0-3-1.71,25.12,25.12,0,0,0-9.52-.7,17.35,17.35,0,0,0-4.41.91l-1.16.45a3.17,3.17,0,0,0-.91.66,2,2,0,0,0-.59,1.09c.11.88.24,1.78.38,2.69s.33,2,.56,3.32.39,2.19.46,2.66c0,.07,0,.28.1.63a3.56,3.56,0,0,0,.14.7c0,.12.13.29.25.52a1.53,1.53,0,0,0,.42.56,11.15,11.15,0,0,0,5.53,1.93,15.18,15.18,0,0,0,8.61-1.23c.3-.16.56-.31.77-.45a2.58,2.58,0,0,0,.59-.56,2,2,0,0,0,.39-.77Q24.23,11.61,24.85,7.59ZM22.3,21.12a2.45,2.45,0,0,1,.1-.53,1.45,1.45,0,0,0,.07-.62c0-.17-.14-.27-.35-.32A12.64,12.64,0,0,1,15,21.71a13,13,0,0,1-7.18-2.06l-.21.11-.1.24a39.25,39.25,0,0,0,.8,4.09q.91,1.57,4,2.1a12.07,12.07,0,0,0,8.33-1,2.32,2.32,0,0,0,1-1,4.89,4.89,0,0,0,.42-1.68A5.51,5.51,0,0,1,22.3,21.12ZM21.49,6.54a2.49,2.49,0,0,1-1,.66,6.33,6.33,0,0,1-1.05.32l-1.22.17a25.85,25.85,0,0,1-6.34,0l-1.22-.21a5.46,5.46,0,0,1-1-.31,3.57,3.57,0,0,1-1.08-.63A2.64,2.64,0,0,1,10,5.63l.91-.14a23.47,23.47,0,0,1,8,0l1,.18a3.52,3.52,0,0,1,.84.31A2.29,2.29,0,0,1,21.49,6.54ZM18.13,14.2a3.11,3.11,0,0,1-.7,2.34,2.94,2.94,0,0,1-2.17,1.19A3,3,0,0,1,13,17a3.19,3.19,0,0,1-1.08-2.2,3.09,3.09,0,0,1,.49-1.82,3.28,3.28,0,0,1,1.4-1.26,2.9,2.9,0,0,1,2.76.21A3.14,3.14,0,0,1,18.13,14.2Zm-1.57.28a1.35,1.35,0,0,0-.81-1.26,1.52,1.52,0,0,0-1.5,0,1.39,1.39,0,0,0-.81,1.44A1.38,1.38,0,0,0,14.28,16a1.41,1.41,0,0,0,1.58-.07A1.42,1.42,0,0,0,16.56,14.48Z"/></g></g></svg>