<svg xmlns="http://www.w3.org/2000/svg" viewBox="0 0 25 20"><defs><style>.cls-1{fill:#00ad74;}</style></defs><title>Email</title><g id="Calque_2" data-name="Calque 2"><g id="Calque_1-2" data-name="Calque 1"><path class="cls-1" d="M25,6.44V17.71a2.2,2.2,0,0,1-.65,1.6,2.24,2.24,0,0,1-1.58.69H2.23a2.15,2.15,0,0,1-1.58-.69A2.11,2.11,0,0,1,0,17.71V6.44A8.75,8.75,0,0,0,1.4,7.68c3.37,2.33,5.68,4,7,4.89.53.41,1,.72,1.28.94A7.11,7.11,0,0,0,11,14.2a3.55,3.55,0,0,0,1.52.33h0a4.14,4.14,0,0,0,1.53-.33,6.15,6.15,0,0,0,1.32-.69l1.28-.94q2.37-1.73,7-4.89A7.62,7.62,0,0,0,25,6.44Zm0-4.18a3.82,3.82,0,0,1-.68,2.14,6.61,6.61,0,0,1-1.7,1.76c-3.5,2.47-5.68,4-6.55,4.6l-1.32,1a5.18,5.18,0,0,1-.73.45,8.3,8.3,0,0,1-.8.39,1.5,1.5,0,0,1-.7.12h0a2.26,2.26,0,0,1-.67-.12,4.49,4.49,0,0,1-.8-.39l-.75-.45a8,8,0,0,1-.75-.56,4,4,0,0,0-.57-.44L5.25,8.19C3.65,7.07,2.7,6.4,2.4,6.16A6.43,6.43,0,0,1,.78,4.53a3.64,3.64,0,0,1-.78-2A2.84,2.84,0,0,1,.58.74,2,2,0,0,1,2.23,0H22.77a2.19,2.19,0,0,1,1.58.66A2.07,2.07,0,0,1,25,2.26Z"/></g></g></svg>