<svg xmlns="http://www.w3.org/2000/svg" viewBox="0 0 30 30"><defs><style>.cls-1{fill:#00ad74;}</style></defs><title>facebook</title><g id="Calque_2" data-name="Calque 2"><g id="Calque_1-2" data-name="Calque 1"><path class="cls-1" d="M24.36,0a5.36,5.36,0,0,1,4,1.68,5.44,5.44,0,0,1,1.65,4V24.37a5.36,5.36,0,0,1-1.65,3.95,5.51,5.51,0,0,1-4,1.68H20.72V18.36h3.89l.56-4.51H20.72V10.94a2.35,2.35,0,0,1,.46-1.6A2.39,2.39,0,0,1,23,8.78l2.38,0v-4a26,26,0,0,0-3.5-.17,5.88,5.88,0,0,0-4.23,1.53A5.75,5.75,0,0,0,16,10.52v3.33H12.11v4.51H16V30H5.64a5.36,5.36,0,0,1-4-1.68A5.44,5.44,0,0,1,0,24.37V5.63A5.36,5.36,0,0,1,1.65,1.68,5.51,5.51,0,0,1,5.64,0Z"/></g></g></svg>