<svg xmlns="http://www.w3.org/2000/svg" viewBox="0 0 30 30"><defs><style>.cls-1{fill:#00ad74;}</style></defs><title>github</title><g id="Calque_2" data-name="Calque 2"><g id="Calque_1-2" data-name="Calque 1"><path class="cls-1" d="M15,0a14.33,14.33,0,0,1,7.52,2.08A15.17,15.17,0,0,1,28,7.67a15.34,15.34,0,0,1,2,7.71,15.17,15.17,0,0,1-2.87,9A14.77,14.77,0,0,1,19.74,30a.8.8,0,0,1-.77-.15.84.84,0,0,1-.24-.61V25a3.59,3.59,0,0,0-1-2.84,10.85,10.85,0,0,0,2-.36A9.09,9.09,0,0,0,21.56,21a4.83,4.83,0,0,0,1.58-1.33,7.6,7.6,0,0,0,1.05-2.08,8,8,0,0,0,.38-3A5.94,5.94,0,0,0,23,10.47a5.4,5.4,0,0,0-.14-4.09,2.56,2.56,0,0,0-1.61.22,8.43,8.43,0,0,0-1.78.89L18.76,8A13.06,13.06,0,0,0,15,7.42,13.39,13.39,0,0,0,11.24,8c-.19-.15-.46-.32-.81-.54a13.6,13.6,0,0,0-1.64-.79,2.39,2.39,0,0,0-1.65-.25A5.56,5.56,0,0,0,7,10.47a5.94,5.94,0,0,0-1.54,4.12,9.59,9.59,0,0,0,.42,3,7.48,7.48,0,0,0,1,2.12A4.39,4.39,0,0,0,8.44,21a14,14,0,0,0,1.82.78,7,7,0,0,0,2,.36,3.57,3.57,0,0,0-.94,2.08,5.33,5.33,0,0,1-.88.29,5,5,0,0,1-1.12.11,2.18,2.18,0,0,1-1.26-.43A4,4,0,0,1,7,22.94a3.53,3.53,0,0,0-1-1,3.13,3.13,0,0,0-1-.5l-.38,0a1.33,1.33,0,0,0-.56.08c-.1,0-.13.13-.11.25a.41.41,0,0,0,.18.28l.24.22.14.11a2.58,2.58,0,0,1,.84.75,4.51,4.51,0,0,1,.63,1l.21.46a2.41,2.41,0,0,0,.84,1.22,3,3,0,0,0,1.3.61,5.28,5.28,0,0,0,1.36.11c.44,0,.81,0,1.09,0l.45-.1v1.79a5.77,5.77,0,0,0,0,1.07.8.8,0,0,1-.28.61.83.83,0,0,1-.77.15,14.77,14.77,0,0,1-7.39-5.56,15.17,15.17,0,0,1-2.87-9A15.16,15.16,0,0,1,2,7.67,15.56,15.56,0,0,1,7.46,2.08,14.14,14.14,0,0,1,15,0ZM5.67,22.08c0-.09,0-.18-.1-.25s-.24,0-.28,0,0,.18.14.25S5.62,22.18,5.67,22.08Zm.63.68c.09-.07.08-.17,0-.3s-.24-.16-.32-.09-.06.18.06.32S6.21,22.86,6.3,22.76Zm.56.9c.14-.1.15-.23,0-.4s-.24-.2-.35-.12-.12.21,0,.38S6.77,23.73,6.86,23.66Zm.84.82c.09-.09.07-.22-.09-.37s-.28-.18-.38-.06-.08.25.07.4S7.58,24.6,7.7,24.48ZM8.82,25c0-.15-.06-.25-.26-.31s-.32,0-.37.13,0,.25.23.32S8.75,25.15,8.82,25Zm1.23.1c0-.16-.11-.24-.34-.23s-.33.1-.33.25.11.23.33.22S10.05,25.24,10.05,25.09Zm1.12-.18c0-.16-.14-.23-.35-.19s-.31.13-.28.3.14.22.35.14S11.19,25,11.17,24.91Z"/></g></g></svg>