<svg xmlns="http://www.w3.org/2000/svg" viewBox="0 0 30 30"><defs><style>.cls-1{fill:#00ad74;}</style></defs><title>instagram</title><g id="Calque_2" data-name="Calque 2"><g id="Calque_1-2" data-name="Calque 1"><path class="cls-1" d="M25.33,0a4.5,4.5,0,0,1,3.31,1.36A4.5,4.5,0,0,1,30,4.67v5.1H22.4A8.61,8.61,0,0,0,15,5.93,8.4,8.4,0,0,0,7.6,9.77H0V4.67A4.5,4.5,0,0,1,1.36,1.36,4.5,4.5,0,0,1,4.67,0ZM24.07,15a7.09,7.09,0,0,0-.21-1.74H30v12a4.6,4.6,0,0,1-1.36,3.34A4.46,4.46,0,0,1,25.33,30H4.67a4.46,4.46,0,0,1-3.31-1.4A4.6,4.6,0,0,1,0,25.26v-12H6.07A15.56,15.56,0,0,0,5.93,15a8.75,8.75,0,0,0,2.65,6.38A8.66,8.66,0,0,0,15,24.07a8.77,8.77,0,0,0,6.42-2.69A8.71,8.71,0,0,0,24.07,15Zm-3.49,0a5.37,5.37,0,0,1-1.64,3.94A5.35,5.35,0,0,1,15,20.58a5.33,5.33,0,0,1-3.94-1.64,5.38,5.38,0,0,1-1.64-4,5.29,5.29,0,0,1,1.64-4A5.41,5.41,0,0,1,15,9.42,5.43,5.43,0,0,1,18.94,11,5.36,5.36,0,0,1,20.58,15Zm7-9.21V3.28a.74.74,0,0,0-.84-.84H24.21a.74.74,0,0,0-.84.84V5.79a.83.83,0,0,0,.25.56.74.74,0,0,0,.59.28h2.51A.74.74,0,0,0,27.56,5.79Z"/></g></g></svg>