<svg xmlns="http://www.w3.org/2000/svg" viewBox="0 0 30 30"><defs><style>.cls-1{fill:#00ad74;}</style></defs><title>linkedin</title><g id="Calque_2" data-name="Calque 2"><g id="Calque_1-2" data-name="Calque 1"><path class="cls-1" d="M30,5.63V24.37a5.36,5.36,0,0,1-1.65,3.95,5.51,5.51,0,0,1-4,1.68H5.64a5.36,5.36,0,0,1-4-1.68A5.44,5.44,0,0,1,0,24.37V5.63A5.36,5.36,0,0,1,1.65,1.68,5.51,5.51,0,0,1,5.64,0H24.36a5.36,5.36,0,0,1,4,1.68A5.44,5.44,0,0,1,30,5.63ZM9.45,7.38A2.33,2.33,0,0,0,8.72,5.7,2.52,2.52,0,0,0,6.93,5a2.74,2.74,0,0,0-1.85.66,2.06,2.06,0,0,0-.76,1.68A2.28,2.28,0,0,0,5,9.06a2.55,2.55,0,0,0,1.82.66,2.61,2.61,0,0,0,1.86-.66A2.37,2.37,0,0,0,9.45,7.38ZM4.62,25.11H9.14V11.57H4.62Zm16.24,0h4.52V17.34a6.41,6.41,0,0,0-1.44-4.54,4.85,4.85,0,0,0-3.74-1.54,4.58,4.58,0,0,0-4.1,2.27h0v-2H11.62q.08,1.3,0,13.54h4.52V17.52a3,3,0,0,1,.14-1.09,3,3,0,0,1,.87-1.15,2.19,2.19,0,0,1,1.44-.49c1.51,0,2.27,1,2.27,3.08Z"/></g></g></svg>