<svg xmlns="http://www.w3.org/2000/svg" viewBox="0 0 15 20"><defs><style>.cls-1{fill:#00ad74;}</style></defs><title>loc</title><g id="Calque_2" data-name="Calque 2"><g id="Calque_1-2" data-name="Calque 1"><path class="cls-1" d="M0,7.54A7.33,7.33,0,0,1,2.19,2.2,7.13,7.13,0,0,1,7.5,0a7.32,7.32,0,0,1,5.31,2.2A7.23,7.23,0,0,1,15,7.54,6.3,6.3,0,0,1,14,11.4L7.5,20,1.05,11.4A6.3,6.3,0,0,1,0,7.54Zm4.36,0A3.12,3.12,0,0,0,7.5,10.7a3.12,3.12,0,0,0,3.14-3.16A3.12,3.12,0,0,0,7.5,4.38,3.12,3.12,0,0,0,4.36,7.54Z"/></g></g></svg>