<svg xmlns="http://www.w3.org/2000/svg" viewBox="0 0 160 43.48"><defs><style>.cls-1{fill:#8cc63f;}.cls-2{fill:#009245;}</style></defs><title>logo</title><g id="Calque_2" data-name="Calque 2"><g id="Calque_1-2" data-name="Calque 1"><path class="cls-1" d="M7.34,22.08H21.82v3.15H7.34V42.85H0V6.14H25.38l1.21,3.15H7.34Z"/><path class="cls-1" d="M32.25,6.14h7V42.85h-7Z"/><path class="cls-1" d="M45.83,29.74C45.83,21,51.71,16,60.05,16s14.21,5,14.21,13.74S68.38,43.48,60.05,43.48,45.83,38.5,45.83,29.74ZM67,33V26.38c0-5.24-2.88-7.44-7-7.44s-7,2.2-7,7.44V33.1c0,5.24,2.89,7.44,7,7.44S67,38.29,67,33Z"/><path class="cls-1" d="M99.17,16.21v4.93l-.47.1a7.61,7.61,0,0,0-3.47-.68,9.19,9.19,0,0,0-7.39,4V42.85h-7V16.63h7V21.3C89.52,18.88,93,16,97.33,16A6.74,6.74,0,0,1,99.17,16.21Z"/><path class="cls-1" d="M108.76,30.53V33c0,5.09,2.94,7.55,8.39,7.55,3.47,0,7.08-1.31,9.13-3.51h.58l1.73,2.1a16.66,16.66,0,0,1-11.91,4.35c-9.28,0-15.15-5-15.15-13.74S107.45,16,115.74,16c8,0,13.69,5,13.69,13.58v1Zm0-3.88v1h13.85v-1c0-5.35-2.78-7.71-6.87-7.71S108.76,21.3,108.76,26.65Z"/><path class="cls-1" d="M160,25.39V42.85h-7V40.12a11.35,11.35,0,0,1-8.6,3.36c-6.24,0-10.48-3.36-10.48-9.23s4.56-9,10.9-9A14.27,14.27,0,0,1,153,27.48V24c0-3.67-2.15-5-5.71-5A16.48,16.48,0,0,0,138,22h-.48l-1.2-2.73A23.47,23.47,0,0,1,148.67,16C155.65,16,160,18.52,160,25.39ZM153,37V30.16a10.09,10.09,0,0,0-6.13-2.05c-3.57,0-6,1.73-6,5.56V35c0,3.52,2.2,5.46,5.24,5.46A8.71,8.71,0,0,0,153,37Z"/><path class="cls-2" d="M116.74,13.83a13.65,13.65,0,0,1,3-8.89A13.83,13.83,0,0,1,128.87,0a14.17,14.17,0,0,1-3.1,8.75A14.3,14.3,0,0,1,116.74,13.83Z"/><path class="cls-2" d="M115.85,9.91A7.45,7.45,0,0,1,111.68,7a7.46,7.46,0,0,1-1.15-5.54,7.73,7.73,0,0,1,4.07,3A7.85,7.85,0,0,1,115.85,9.91Z"/></g></g></svg>