<svg xmlns="http://www.w3.org/2000/svg" viewBox="0 0 38 30"><defs><style>.cls-1{fill:#00ad74;}</style></defs><title>mail</title><g id="Calque_2" data-name="Calque 2"><g id="Calque_1-2" data-name="Calque 1"><path class="cls-1" d="M38,9.66v16.9A3.27,3.27,0,0,1,37,29a3.42,3.42,0,0,1-2.39,1H3.38A3.25,3.25,0,0,1,1,29a3.22,3.22,0,0,1-1-2.41V9.66a13.72,13.72,0,0,0,2.13,1.87c5.12,3.48,8.64,5.93,10.56,7.32.81.62,1.46,1.09,1.94,1.42a11.47,11.47,0,0,0,2,1,5.66,5.66,0,0,0,2.32.49H19a6.36,6.36,0,0,0,2.32-.49,10.33,10.33,0,0,0,2-1c.51-.36,1.15-.83,1.94-1.42,2.4-1.72,5.93-4.17,10.56-7.32A12.09,12.09,0,0,0,38,9.66ZM38,3.4a5.58,5.58,0,0,1-1,3.2,10.11,10.11,0,0,1-2.58,2.64q-8,5.57-10,6.91l-2,1.48a8.12,8.12,0,0,1-1.1.69,11.77,11.77,0,0,1-1.22.57,2.2,2.2,0,0,1-1.06.19H19a3.18,3.18,0,0,1-1-.19,5.72,5.72,0,0,1-1.22-.57l-1.14-.69a9.55,9.55,0,0,1-1.14-.84,6.05,6.05,0,0,0-.87-.64L8,12.29q-3.65-2.52-4.33-3A9.7,9.7,0,0,1,1.18,6.79,5.36,5.36,0,0,1,0,3.86,4.26,4.26,0,0,1,.88,1.11,3,3,0,0,1,3.38,0H34.62A3.33,3.33,0,0,1,37,1,3.14,3.14,0,0,1,38,3.4Z"/></g></g></svg>