<svg xmlns="http://www.w3.org/2000/svg" viewBox="0 0 39.99 53"><defs><style>.cls-1{fill:#fff;}</style></defs><title>nav-d-slider</title><g id="Calque_2" data-name="Calque 2"><g id="Calque_1-2" data-name="Calque 1"><path class="cls-1" d="M2.13,43.9l24.29-17L2,9A5,5,0,0,1,8,1L38,23c.08.06.14.13.22.2s.26.22.38.34a4.47,4.47,0,0,1,.35.41c.06.07.13.13.19.21l.08.15a5.46,5.46,0,0,1,.27.48c.06.13.13.27.19.41s.1.31.15.46.09.32.12.47a4,4,0,0,1,.05.47,3.38,3.38,0,0,1,0,1c0,.16,0,.31-.06.46s-.08.32-.13.48-.1.3-.16.45a4.11,4.11,0,0,1-.21.42c-.08.15-.17.31-.27.46A1.19,1.19,0,0,1,39,30a4.42,4.42,0,0,1-.39.47l0,0a5.6,5.6,0,0,1-.69.6s0,0-.06.05l-30,21a5,5,0,1,1-5.74-8.2Z"/></g></g></svg>