<svg xmlns="http://www.w3.org/2000/svg" viewBox="0 0 20 20"><defs><style>.cls-1{fill:#00ad74;}</style></defs><title>phone</title><g id="Calque_2" data-name="Calque 2"><g id="Calque_1-2" data-name="Calque 1"><path class="cls-1" d="M0,4.64A2,2,0,0,1,.57,3.11L3.36.32A.93.93,0,0,1,4.92.58L7.21,4.84a1.18,1.18,0,0,1-.29,1.44l-1,1a.42.42,0,0,0-.1.28,8.29,8.29,0,0,0,2.67,3.94l1.36,1.3c.48.45.71.63.68.52s.25.06.83.51.85.54.81.28c.27.08.45.07.55,0l1.23-1.21a1.28,1.28,0,0,1,1.46-.25l4.1,2.45a1,1,0,0,1,.51.75.92.92,0,0,1-.26.79l-2.85,2.8a2,2,0,0,1-1.5.55A12.73,12.73,0,0,1,9,17.55a24.33,24.33,0,0,1-7.59-8.2A10.53,10.53,0,0,1,0,4.64Z"/></g></g></svg>