<svg xmlns="http://www.w3.org/2000/svg" viewBox="0 0 18.26 22.6"><defs><style>.cls-1,.cls-3{fill:none;}.cls-2{fill:#00ad74;}.cls-3{stroke:#00ad74;}</style></defs><title>recherche</title><g id="Calque_2" data-name="Calque 2"><g id="Calque_1-2" data-name="Calque 1"><g id="Glass"><g id="Glass-2"><path class="cls-1" d="M8.45,0A8.45,8.45,0,1,1,0,8.45H0A8.45,8.45,0,0,1,8.45,0Z"/><path class="cls-2" d="M8.45,3A5.45,5.45,0,1,0,13.9,8.45,5.45,5.45,0,0,0,8.45,3m0-3A8.45,8.45,0,1,1,0,8.45,8.45,8.45,0,0,1,8.45,0Z"/></g><g id="Rectangle_1494" data-name="Rectangle 1494"><path class="cls-2" d="M12.2,14.48h0a1.2,1.2,0,0,1,1.68.29L18,20.7a1.2,1.2,0,0,1-.3,1.68h0a1.2,1.2,0,0,1-1.68-.29L11.9,16.16A1.2,1.2,0,0,1,12.2,14.48Z"/><path class="cls-3" d="M12.49,14.89h0a.69.69,0,0,1,1,.17L17.63,21a.7.7,0,0,1-.17,1h0a.71.71,0,0,1-1-.17l-4.16-5.93A.71.71,0,0,1,12.49,14.89Z"/></g></g></g></g></svg>