<svg xmlns="http://www.w3.org/2000/svg" viewBox="0 0 30 30"><defs><style>.cls-1{fill:#00ad74;}</style></defs><title>twitter</title><g id="Calque_2" data-name="Calque 2"><g id="Calque_1-2" data-name="Calque 1"><path class="cls-1" d="M30,5.63V24.37a5.36,5.36,0,0,1-1.65,3.95,5.51,5.51,0,0,1-4,1.68H5.64a5.36,5.36,0,0,1-4-1.68A5.44,5.44,0,0,1,0,24.37V5.63A5.36,5.36,0,0,1,1.65,1.68,5.51,5.51,0,0,1,5.64,0H24.36a5.36,5.36,0,0,1,4,1.68A5.44,5.44,0,0,1,30,5.63ZM25,9.41a8.79,8.79,0,0,1-2.34.66A4,4,0,0,0,24.47,7.8a8.61,8.61,0,0,1-2.63,1A3.87,3.87,0,0,0,18.9,7.52,4,4,0,0,0,16,8.71a4.06,4.06,0,0,0-1.22,2.9,3.61,3.61,0,0,0,.1.94,11.35,11.35,0,0,1-4.72-1.29,12.13,12.13,0,0,1-3.75-3,4.12,4.12,0,0,0-.56,2.06A3.87,3.87,0,0,0,7.6,13.74a4.94,4.94,0,0,1-2-.52v0a3.88,3.88,0,0,0,1,2.62A3.9,3.9,0,0,0,9,17.27a3.3,3.3,0,0,1-1,.18,4.46,4.46,0,0,1-.77-.11,4.26,4.26,0,0,0,1.47,2.07,3.79,3.79,0,0,0,2.34.8A8,8,0,0,1,6,22a6,6,0,0,1-1-.07,11.41,11.41,0,0,0,6.3,1.85A11.8,11.8,0,0,0,15.4,23a10.48,10.48,0,0,0,3.29-1.85A12.43,12.43,0,0,0,21,18.53a12.07,12.07,0,0,0,1.47-3.18A10.53,10.53,0,0,0,23,12.06v-.52A7.62,7.62,0,0,0,25,9.41Z"/></g></g></svg>